<?xml version="1.0" encoding="UTF-8" standalone="no"?>
<!DOCTYPE svg PUBLIC "-//W3C//DTD SVG 1.1//EN"
 "http://www.w3.org/Graphics/SVG/1.1/DTD/svg11.dtd">
<!-- Generated by graphviz version 2.26.3 (20100126.1600)
 -->
<!-- Title: _anonymous_0 Pages: 1 -->
<svg width="2451pt" height="2438pt"
 viewBox="0.00 0.00 2451.00 2438.00" xmlns="http://www.w3.org/2000/svg" xmlns:xlink="http://www.w3.org/1999/xlink">
<g id="graph1" class="graph" transform="scale(1 1) rotate(0) translate(4 2434)">
<title>_anonymous_0</title>
<polygon fill="white" stroke="white" points="-4,5 -4,-2434 2448,-2434 2448,5 -4,5"/>
<g id="graph2" class="cluster"><title>cluster_data_services</title>
<polygon fill="none" stroke="black" points="81,-8 81,-950 1483,-950 1483,-8 81,-8"/>
<text text-anchor="middle" x="782" y="-929.8" font-family="Times Roman,serif" font-size="18.00">DataServices</text>
</g>
<g id="graph3" class="cluster"><title>cluster_70226805116200</title>
<polygon fill="none" stroke="black" points="63,-985 63,-1283 952,-1283 952,-985 63,-985"/>
<text text-anchor="middle" x="507.5" y="-1262.8" font-family="Times Roman,serif" font-size="18.00">Compositions::ControlLoopAvalon</text>
</g>
<g id="graph4" class="cluster"><title>cluster_70226956331620</title>
<polygon fill="none" stroke="black" points="368,-1318 368,-1562 1794,-1562 1794,-1318 368,-1318"/>
<text text-anchor="middle" x="1081" y="-1541.8" font-family="Times Roman,serif" font-size="18.00">Compositions::ControlLoop/[command.is_a?(DataServices::Motion2DCommand), controller.is_a?(DataServices::Motion2DController)]</text>
</g>
<g id="graph5" class="cluster"><title>cluster_70226955912580</title>
<polygon fill="none" stroke="black" points="972,-958 972,-1310 2435,-1310 2435,-958 972,-958"/>
<text text-anchor="middle" x="1703.5" y="-1289.8" font-family="Times Roman,serif" font-size="18.00">Compositions::ControlLoop/[command.is_a?(DataServices::Motion2DCommand), actuators.is_a?(Hbridge::Task), controller.is_a?(DataServices::Motion2DController)]</text>
</g>
<g id="graph6" class="cluster"><title>cluster_70226956375700</title>
<polygon fill="none" stroke="black" points="21,-1570 21,-1810 932,-1810 932,-1570 21,-1570"/>
<text text-anchor="middle" x="476.5" y="-1789.8" font-family="Times Roman,serif" font-size="18.00">Compositions::ControlLoop</text>
<text text-anchor="middle" x="476.5" y="-1767.8" font-family="Times Roman,serif" font-size="18.00">Abstract</text>
</g>
<g id="graph7" class="cluster"><title>cluster_70226805133940</title>
<polygon fill="none" stroke="black" points="8,-1818 8,-2422 1513,-2422 1513,-1818 8,-1818"/>
<text text-anchor="middle" x="760.5" y="-2401.8" font-family="Times Roman,serif" font-size="18.00">Compositions::PoseEstimation</text>
<text text-anchor="middle" x="760.5" y="-2379.8" font-family="Times Roman,serif" font-size="18.00">Provides:</text>
<text text-anchor="middle" x="760.5" y="-2357.8" font-family="Times Roman,serif" font-size="18.00">pose:DataServices::Pose</text>
</g>
<!-- C70226958381540 -->
<g id="node2" class="node"><title>C70226958381540</title>
<polygon fill="none" stroke="black" points="1353,-524 1353,-578 1475,-578 1475,-524 1353,-524"/>
<text text-anchor="middle" x="1414" y="-560.5" font-family="Times Roman,serif" font-size="15.00">RelativePose</text>
<polyline fill="none" stroke="black" points="1353,-551 1475,-551 "/>
<text text-anchor="middle" x="1414" y="-533.5" font-family="Times Roman,serif" font-size="15.00">pose_samples</text>
</g>
<!-- C70226958539700 -->
<g id="node3" class="node"><title>C70226958539700</title>
<polygon fill="none" stroke="black" points="689,-560 689,-614 811,-614 811,-560 689,-560"/>
<text text-anchor="middle" x="750" y="-596.5" font-family="Times Roman,serif" font-size="15.00">Pose</text>
<polyline fill="none" stroke="black" points="689,-587 811,-587 "/>
<text text-anchor="middle" x="750" y="-569.5" font-family="Times Roman,serif" font-size="15.00">pose_samples</text>
</g>
<!-- C70226958539700&#45;&gt;C70226958381540 -->
<g id="edge3" class="edge"><title>C70226958539700:pose_samples&#45;&gt;C70226958381540:pose_samples</title>
<path fill="none" stroke="black" d="M811,-573C1049,-573 1109.87,-538.012 1342.85,-537.021"/>
<polygon fill="black" stroke="black" points="1343.01,-540.521 1353,-537 1342.99,-533.521 1343.01,-540.521"/>
</g>
<!-- C70226958449040 -->
<g id="node5" class="node"><title>C70226958449040</title>
<polygon fill="none" stroke="black" points="1353,-596 1353,-650 1475,-650 1475,-596 1353,-596"/>
<text text-anchor="middle" x="1414" y="-632.5" font-family="Times Roman,serif" font-size="15.00">GlobalPose</text>
<polyline fill="none" stroke="black" points="1353,-623 1475,-623 "/>
<text text-anchor="middle" x="1414" y="-605.5" font-family="Times Roman,serif" font-size="15.00">pose_samples</text>
</g>
<!-- C70226958539700&#45;&gt;C70226958449040 -->
<g id="edge5" class="edge"><title>C70226958539700:pose_samples&#45;&gt;C70226958449040:pose_samples</title>
<path fill="none" stroke="black" d="M811,-573C882.826,-573 900.362,-581.818 972,-587 1137.7,-598.986 1181.6,-608.599 1342.72,-608.988"/>
<polygon fill="black" stroke="black" points="1343,-612.488 1353,-609 1343,-605.488 1343,-612.488"/>
</g>
<!-- C70226958140480 -->
<g id="node7" class="node"><title>C70226958140480</title>
<polygon fill="none" stroke="black" points="646,-786 646,-840 854,-840 854,-786 646,-786"/>
<text text-anchor="middle" x="750" y="-822.5" font-family="Times Roman,serif" font-size="15.00">CompensatedIMUSensors</text>
<polyline fill="none" stroke="black" points="646,-813 854,-813 "/>
<text text-anchor="middle" x="750" y="-795.5" font-family="Times Roman,serif" font-size="15.00">sensors</text>
</g>
<!-- C70226958216620 -->
<g id="node8" class="node"><title>C70226958216620</title>
<polygon fill="none" stroke="black" points="122,-858 122,-912 226,-912 226,-858 122,-858"/>
<text text-anchor="middle" x="174" y="-894.5" font-family="Times Roman,serif" font-size="15.00">IMUSensors</text>
<polyline fill="none" stroke="black" points="122,-885 226,-885 "/>
<text text-anchor="middle" x="174" y="-867.5" font-family="Times Roman,serif" font-size="15.00">sensors</text>
</g>
<!-- C70226958216620&#45;&gt;C70226958140480 -->
<g id="edge7" class="edge"><title>C70226958216620:sensors&#45;&gt;C70226958140480:sensors</title>
<path fill="none" stroke="black" d="M226,-871C270.758,-871 563.904,-806.66 635.829,-799.622"/>
<polygon fill="black" stroke="black" points="636.233,-803.104 646,-799 635.805,-796.117 636.233,-803.104"/>
</g>
<!-- C70226958100440 -->
<g id="node20" class="node"><title>C70226958100440</title>
<polygon fill="none" stroke="black" points="659,-858 659,-912 841,-912 841,-858 659,-858"/>
<text text-anchor="middle" x="750" y="-894.5" font-family="Times Roman,serif" font-size="15.00">CalibratedIMUSensors</text>
<polyline fill="none" stroke="black" points="659,-885 841,-885 "/>
<text text-anchor="middle" x="750" y="-867.5" font-family="Times Roman,serif" font-size="15.00">sensors</text>
</g>
<!-- C70226958216620&#45;&gt;C70226958100440 -->
<g id="edge13" class="edge"><title>C70226958216620:sensors&#45;&gt;C70226958100440:sensors</title>
<path fill="none" stroke="black" d="M226,-871C415.062,-871 464.82,-871 648.984,-871"/>
<polygon fill="black" stroke="black" points="649,-874.5 659,-871 649,-867.5 649,-874.5"/>
</g>
<!-- C70226958668100 -->
<g id="node10" class="node"><title>C70226958668100</title>
<polygon fill="none" stroke="black" points="101,-406 101,-460 247,-460 247,-406 101,-406"/>
<text text-anchor="middle" x="174" y="-442.5" font-family="Times Roman,serif" font-size="15.00">Position</text>
<polyline fill="none" stroke="black" points="101,-433 247,-433 "/>
<text text-anchor="middle" x="174" y="-415.5" font-family="Times Roman,serif" font-size="15.00">position_samples</text>
</g>
<!-- C70226958668100&#45;&gt;C70226958539700 -->
<g id="edge17" class="edge"><title>C70226958668100:position_samples&#45;&gt;C70226958539700:pose_samples</title>
<path fill="none" stroke="black" d="M247,-419C451.573,-419 480.062,-567.929 678.788,-572.874"/>
<polygon fill="black" stroke="black" points="678.958,-576.376 689,-573 679.044,-569.377 678.958,-576.376"/>
</g>
<!-- C70226958829260 -->
<g id="node11" class="node"><title>C70226958829260</title>
<polygon fill="none" stroke="black" points="126.5,-740.5 126.5,-767.5 221.5,-767.5 221.5,-740.5 126.5,-740.5"/>
<text text-anchor="middle" x="174" y="-750" font-family="Times Roman,serif" font-size="15.00">Command</text>
</g>
<!-- C70226957906900 -->
<g id="node12" class="node"><title>C70226957906900</title>
<polygon fill="none" stroke="black" points="96.5,-668 96.5,-722 251.5,-722 251.5,-668 96.5,-668"/>
<text text-anchor="middle" x="174" y="-704.5" font-family="Times Roman,serif" font-size="15.00">StereoPairProvider</text>
<polyline fill="none" stroke="black" points="96.5,-695 251.5,-695 "/>
<text text-anchor="middle" x="174" y="-677.5" font-family="Times Roman,serif" font-size="15.00">images</text>
</g>
<!-- C70226957839720 -->
<g id="node13" class="node"><title>C70226957839720</title>
<polygon fill="none" stroke="black" points="98,-596 98,-650 250,-650 250,-596 98,-596"/>
<text text-anchor="middle" x="174" y="-632.5" font-family="Times Roman,serif" font-size="15.00">LaserRangeFinder</text>
<polyline fill="none" stroke="black" points="98,-623 250,-623 "/>
<text text-anchor="middle" x="174" y="-605.5" font-family="Times Roman,serif" font-size="15.00">scans</text>
</g>
<!-- C70226958034180 -->
<g id="node14" class="node"><title>C70226958034180</title>
<polygon fill="none" stroke="black" points="111.5,-524 111.5,-578 236.5,-578 236.5,-524 111.5,-524"/>
<text text-anchor="middle" x="174" y="-560.5" font-family="Times Roman,serif" font-size="15.00">ImageProvider</text>
<polyline fill="none" stroke="black" points="111.5,-551 236.5,-551 "/>
<text text-anchor="middle" x="174" y="-533.5" font-family="Times Roman,serif" font-size="15.00">images</text>
</g>
<!-- C70226956171100 -->
<g id="node15" class="node"><title>C70226956171100</title>
<polygon fill="none" stroke="black" points="132,-478.5 132,-505.5 216,-505.5 216,-478.5 132,-478.5"/>
<text text-anchor="middle" x="174" y="-488" font-family="Times Roman,serif" font-size="15.00">Hbridges</text>
</g>
<!-- C70226958780120 -->
<g id="node16" class="node"><title>C70226958780120</title>
<polygon fill="none" stroke="black" points="668.5,-221 668.5,-329 831.5,-329 831.5,-221 668.5,-221"/>
<text text-anchor="middle" x="750" y="-311.5" font-family="Times Roman,serif" font-size="15.00">actuator_status</text>
<polyline fill="none" stroke="black" points="668.5,-302 831.5,-302 "/>
<text text-anchor="middle" x="750" y="-284.5" font-family="Times Roman,serif" font-size="15.00">command</text>
<polyline fill="none" stroke="black" points="668.5,-275 831.5,-275 "/>
<text text-anchor="middle" x="750" y="-257.5" font-family="Times Roman,serif" font-size="15.00">Motion2DController</text>
<polyline fill="none" stroke="black" points="668.5,-248 831.5,-248 "/>
<text text-anchor="middle" x="750" y="-230.5" font-family="Times Roman,serif" font-size="15.00">actuator_command</text>
</g>
<!-- C70226957313240 -->
<g id="node17" class="node"><title>C70226957313240</title>
<polygon fill="none" stroke="black" points="92.5,-234.5 92.5,-315.5 255.5,-315.5 255.5,-234.5 92.5,-234.5"/>
<text text-anchor="middle" x="174" y="-298" font-family="Times Roman,serif" font-size="15.00">actuator_status</text>
<polyline fill="none" stroke="black" points="92.5,-288.5 255.5,-288.5 "/>
<text text-anchor="middle" x="174" y="-271" font-family="Times Roman,serif" font-size="15.00">ActuatorController</text>
<polyline fill="none" stroke="black" points="92.5,-261.5 255.5,-261.5 "/>
<text text-anchor="middle" x="174" y="-244" font-family="Times Roman,serif" font-size="15.00">actuator_command</text>
</g>
<!-- C70226957313240&#45;&gt;C70226958780120 -->
<g id="edge9" class="edge"><title>C70226957313240:actuator_status&#45;&gt;C70226958780120:actuator_status</title>
<path fill="none" stroke="black" d="M256,-302C435.817,-302 483.045,-315.485 657.942,-315.986"/>
<polygon fill="black" stroke="black" points="657.995,-319.486 668,-316 658.005,-312.486 657.995,-319.486"/>
</g>
<!-- C70226957313240&#45;&gt;C70226958780120 -->
<g id="edge11" class="edge"><title>C70226957313240:actuator_command&#45;&gt;C70226958780120:actuator_command</title>
<path fill="none" stroke="black" d="M256,-248C435.817,-248 483.045,-234.515 657.942,-234.014"/>
<polygon fill="black" stroke="black" points="658.005,-237.514 668,-234 657.995,-230.514 658.005,-237.514"/>
</g>
<!-- C70226958305900 -->
<g id="node22" class="node"><title>C70226958305900</title>
<polygon fill="none" stroke="black" points="90.5,-334 90.5,-388 257.5,-388 257.5,-334 90.5,-334"/>
<text text-anchor="middle" x="174" y="-370.5" font-family="Times Roman,serif" font-size="15.00">PoseDelta</text>
<polyline fill="none" stroke="black" points="90.5,-361 257.5,-361 "/>
<text text-anchor="middle" x="174" y="-343.5" font-family="Times Roman,serif" font-size="15.00">pose_delta_samples</text>
</g>
<!-- C70226958619240 -->
<g id="node23" class="node"><title>C70226958619240</title>
<polygon fill="none" stroke="black" points="89.5,-786 89.5,-840 258.5,-840 258.5,-786 89.5,-786"/>
<text text-anchor="middle" x="174" y="-822.5" font-family="Times Roman,serif" font-size="15.00">Orientation</text>
<polyline fill="none" stroke="black" points="89.5,-813 258.5,-813 "/>
<text text-anchor="middle" x="174" y="-795.5" font-family="Times Roman,serif" font-size="15.00">orientation_samples</text>
</g>
<!-- C70226958619240&#45;&gt;C70226958539700 -->
<g id="edge15" class="edge"><title>C70226958619240:orientation_samples&#45;&gt;C70226958539700:pose_samples</title>
<path fill="none" stroke="black" d="M259,-799C471.421,-799 473.102,-580.225 678.731,-573.174"/>
<polygon fill="black" stroke="black" points="679.061,-576.669 689,-573 678.942,-569.67 679.061,-576.669"/>
</g>
<!-- C70226958711500 -->
<g id="node24" class="node"><title>C70226958711500</title>
<polygon fill="none" stroke="black" points="90.5,-162 90.5,-216 257.5,-216 257.5,-162 90.5,-162"/>
<text text-anchor="middle" x="174" y="-198.5" font-family="Times Roman,serif" font-size="15.00">Motion2DCommand</text>
<polyline fill="none" stroke="black" points="90.5,-189 257.5,-189 "/>
<text text-anchor="middle" x="174" y="-171.5" font-family="Times Roman,serif" font-size="15.00">command</text>
</g>
<!-- C70226956310020 -->
<g id="node25" class="node"><title>C70226956310020</title>
<polygon fill="none" stroke="black" points="123.5,-116.5 123.5,-143.5 224.5,-143.5 224.5,-116.5 123.5,-116.5"/>
<text text-anchor="middle" x="174" y="-126" font-family="Times Roman,serif" font-size="15.00">HbridgeSet</text>
</g>
<!-- C70226957065900 -->
<g id="node28" class="node"><title>C70226957065900</title>
<polygon fill="none" stroke="black" points="128,-16.5 128,-97.5 220,-97.5 220,-16.5 128,-16.5"/>
<text text-anchor="middle" x="174" y="-80" font-family="Times Roman,serif" font-size="15.00">command</text>
<polyline fill="none" stroke="black" points="128,-70.5 220,-70.5 "/>
<text text-anchor="middle" x="174" y="-53" font-family="Times Roman,serif" font-size="15.00">Actuators</text>
<polyline fill="none" stroke="black" points="128,-43.5 220,-43.5 "/>
<text text-anchor="middle" x="174" y="-26" font-family="Times Roman,serif" font-size="15.00">status</text>
</g>
<!-- C70226805116200pose -->
<g id="node29" class="node"><title>C70226805116200pose</title>
<polygon fill="none" stroke="red" points="71,-1191 71,-1245 277,-1245 277,-1191 71,-1191"/>
<text text-anchor="middle" x="174" y="-1227.5" font-family="Times Roman,serif" font-size="15.00">pose[DataServices::Pose]</text>
<polyline fill="none" stroke="red" points="71,-1218 277,-1218 "/>
<text text-anchor="middle" x="174" y="-1200.5" font-family="Times Roman,serif" font-size="15.00">pose_samples</text>
</g>
<!-- C70226805116200motioncontrol -->
<g id="node31" class="node"><title>C70226805116200motioncontrol</title>
<polygon fill="none" stroke="black" points="556,-1082 556,-1244 944,-1244 944,-1082 556,-1082"/>
<text text-anchor="middle" x="750" y="-1226.5" font-family="Times Roman,serif" font-size="15.00">motion_commands</text>
<polyline fill="none" stroke="black" points="556,-1217 944,-1217 "/>
<text text-anchor="middle" x="750" y="-1199.5" font-family="Times Roman,serif" font-size="15.00">pose_samples</text>
<polyline fill="none" stroke="black" points="556,-1190 944,-1190 "/>
<text text-anchor="middle" x="750" y="-1172.5" font-family="Times Roman,serif" font-size="15.00">motioncontrol[AvalonControl::MotionControlTask]</text>
<polyline fill="none" stroke="black" points="556,-1163 944,-1163 "/>
<text text-anchor="middle" x="750" y="-1145.5" font-family="Times Roman,serif" font-size="15.00">debug</text>
<polyline fill="none" stroke="black" points="556,-1136 944,-1136 "/>
<text text-anchor="middle" x="750" y="-1118.5" font-family="Times Roman,serif" font-size="15.00">hbridge_commands</text>
<polyline fill="none" stroke="black" points="556,-1109 944,-1109 "/>
<text text-anchor="middle" x="750" y="-1091.5" font-family="Times Roman,serif" font-size="15.00">state</text>
</g>
<!-- C70226805116200pose&#45;&gt;C70226805116200motioncontrol -->
<g id="edge19" class="edge"><title>C70226805116200pose:pose_samples&#45;&gt;C70226805116200motioncontrol:pose_samples</title>
<path fill="none" stroke="black" d="M277,-1204C397.488,-1204 430.17,-1204 545.684,-1204"/>
<polygon fill="black" stroke="black" points="546,-1207.5 556,-1204 546,-1200.5 546,-1207.5"/>
</g>
<!-- C70226805116200 -->
<g id="node33" class="node"><title>C70226805116200</title>
</g>
<!-- C70226805116200hbridge -->
<g id="node34" class="node"><title>C70226805116200hbridge</title>
<polygon fill="none" stroke="black" points="79,-993.5 79,-1128.5 269,-1128.5 269,-993.5 79,-993.5"/>
<text text-anchor="middle" x="174" y="-1111" font-family="Times Roman,serif" font-size="15.00">can_in</text>
<polyline fill="none" stroke="black" points="79,-1101.5 269,-1101.5 "/>
<text text-anchor="middle" x="174" y="-1084" font-family="Times Roman,serif" font-size="15.00">hbridge[Hbridge::Task]</text>
<polyline fill="none" stroke="black" points="79,-1074.5 269,-1074.5 "/>
<text text-anchor="middle" x="174" y="-1057" font-family="Times Roman,serif" font-size="15.00">can_out</text>
<polyline fill="none" stroke="black" points="79,-1047.5 269,-1047.5 "/>
<text text-anchor="middle" x="174" y="-1030" font-family="Times Roman,serif" font-size="15.00">errors</text>
<polyline fill="none" stroke="black" points="79,-1020.5 269,-1020.5 "/>
<text text-anchor="middle" x="174" y="-1003" font-family="Times Roman,serif" font-size="15.00">state</text>
</g>
<!-- C70226956375700actuators -->
<g id="node35" class="node"><title>C70226956375700actuators</title>
<polygon fill="none" stroke="red" points="34.5,-1668.5 34.5,-1749.5 313.5,-1749.5 313.5,-1668.5 34.5,-1668.5"/>
<text text-anchor="middle" x="174" y="-1732" font-family="Times Roman,serif" font-size="15.00">command</text>
<polyline fill="none" stroke="red" points="34.5,-1722.5 313.5,-1722.5 "/>
<text text-anchor="middle" x="174" y="-1705" font-family="Times Roman,serif" font-size="15.00">actuators[DataServices::Actuators]</text>
<polyline fill="none" stroke="red" points="34.5,-1695.5 313.5,-1695.5 "/>
<text text-anchor="middle" x="174" y="-1678" font-family="Times Roman,serif" font-size="15.00">status</text>
</g>
<!-- C70226956375700controller -->
<g id="node37" class="node"><title>C70226956375700controller</title>
<polygon fill="none" stroke="red" points="576.5,-1614.5 576.5,-1695.5 923.5,-1695.5 923.5,-1614.5 576.5,-1614.5"/>
<text text-anchor="middle" x="750" y="-1678" font-family="Times Roman,serif" font-size="15.00">actuator_status</text>
<polyline fill="none" stroke="red" points="576.5,-1668.5 923.5,-1668.5 "/>
<text text-anchor="middle" x="750" y="-1651" font-family="Times Roman,serif" font-size="15.00">controller[DataServices::ActuatorController]</text>
<polyline fill="none" stroke="red" points="576.5,-1641.5 923.5,-1641.5 "/>
<text text-anchor="middle" x="750" y="-1624" font-family="Times Roman,serif" font-size="15.00">actuator_command</text>
</g>
<!-- C70226956375700actuators&#45;&gt;C70226956375700controller -->
<g id="edge22" class="edge"><title>C70226956375700actuators:status&#45;&gt;C70226956375700controller:actuator_status</title>
<path fill="none" stroke="black" d="M314,-1682C427.033,-1682 457.775,-1682 565.986,-1682"/>
<polygon fill="black" stroke="black" points="566,-1685.5 576,-1682 566,-1678.5 566,-1685.5"/>
</g>
<!-- C70226956375700controller&#45;&gt;C70226956375700actuators -->
<g id="edge24" class="edge"><title>C70226956375700controller:actuator_command&#45;&gt;C70226956375700actuators:command</title>
<path fill="none" stroke="black" d="M576,-1628C453.494,-1628 440.589,-1730.17 324.077,-1735.76"/>
<polygon fill="black" stroke="black" points="323.915,-1732.26 314,-1736 324.08,-1739.26 323.915,-1732.26"/>
</g>
<!-- C70226956331620actuators -->
<g id="node39" class="node"><title>C70226956331620actuators</title>
<polygon fill="none" stroke="red" points="610.5,-1442.5 610.5,-1523.5 889.5,-1523.5 889.5,-1442.5 610.5,-1442.5"/>
<text text-anchor="middle" x="750" y="-1506" font-family="Times Roman,serif" font-size="15.00">command</text>
<polyline fill="none" stroke="red" points="610.5,-1496.5 889.5,-1496.5 "/>
<text text-anchor="middle" x="750" y="-1479" font-family="Times Roman,serif" font-size="15.00">actuators[DataServices::Actuators]</text>
<polyline fill="none" stroke="red" points="610.5,-1469.5 889.5,-1469.5 "/>
<text text-anchor="middle" x="750" y="-1452" font-family="Times Roman,serif" font-size="15.00">status</text>
</g>
<!-- C70226956331620controller -->
<g id="node41" class="node"><title>C70226956331620controller</title>
<polygon fill="none" stroke="red" points="1236.5,-1361 1236.5,-1469 1591.5,-1469 1591.5,-1361 1236.5,-1361"/>
<text text-anchor="middle" x="1414" y="-1451.5" font-family="Times Roman,serif" font-size="15.00">actuator_status</text>
<polyline fill="none" stroke="red" points="1236.5,-1442 1591.5,-1442 "/>
<text text-anchor="middle" x="1414" y="-1424.5" font-family="Times Roman,serif" font-size="15.00">command</text>
<polyline fill="none" stroke="red" points="1236.5,-1415 1591.5,-1415 "/>
<text text-anchor="middle" x="1414" y="-1397.5" font-family="Times Roman,serif" font-size="15.00">controller[DataServices::Motion2DController]</text>
<polyline fill="none" stroke="red" points="1236.5,-1388 1591.5,-1388 "/>
<text text-anchor="middle" x="1414" y="-1370.5" font-family="Times Roman,serif" font-size="15.00">actuator_command</text>
</g>
<!-- C70226956331620actuators&#45;&gt;C70226956331620controller -->
<g id="edge26" class="edge"><title>C70226956331620actuators:status&#45;&gt;C70226956331620controller:actuator_status</title>
<path fill="none" stroke="black" d="M890,-1456C1040.32,-1456 1080.44,-1456 1225.81,-1456"/>
<polygon fill="black" stroke="black" points="1226,-1459.5 1236,-1456 1226,-1452.5 1226,-1459.5"/>
</g>
<!-- C70226956331620controller&#45;&gt;C70226956331620actuators -->
<g id="edge30" class="edge"><title>C70226956331620controller:actuator_command&#45;&gt;C70226956331620actuators:command</title>
<path fill="none" stroke="black" d="M1236,-1374C1074.32,-1374 1055.97,-1504.22 900.445,-1509.81"/>
<polygon fill="black" stroke="black" points="899.936,-1506.32 890,-1510 900.061,-1513.32 899.936,-1506.32"/>
</g>
<!-- C70226956331620command -->
<g id="node42" class="node"><title>C70226956331620command</title>
<polygon fill="none" stroke="red" points="569,-1370 569,-1424 931,-1424 931,-1370 569,-1370"/>
<text text-anchor="middle" x="750" y="-1406.5" font-family="Times Roman,serif" font-size="15.00">command[DataServices::Motion2DCommand]</text>
<polyline fill="none" stroke="red" points="569,-1397 931,-1397 "/>
<text text-anchor="middle" x="750" y="-1379.5" font-family="Times Roman,serif" font-size="15.00">command</text>
</g>
<!-- C70226956331620command&#45;&gt;C70226956331620controller -->
<g id="edge28" class="edge"><title>C70226956331620command:command&#45;&gt;C70226956331620controller:command</title>
<path fill="none" stroke="black" d="M931,-1383C1064.61,-1383 1097.28,-1426.69 1225.76,-1428.91"/>
<polygon fill="black" stroke="black" points="1225.97,-1432.41 1236,-1429 1226.03,-1425.41 1225.97,-1432.41"/>
</g>
<!-- C70226956331620 -->
<g id="node46" class="node"><title>C70226956331620</title>
</g>
<!-- C70226955912580 -->
<g id="node56" class="node"><title>C70226955912580</title>
</g>
<!-- C70226956331620&#45;&gt;C70226955912580 -->
<g id="edge42" class="edge"><title>C70226956331620&#45;&gt;C70226955912580</title>
<path fill="none" stroke="black" d="M911.41,-1318.21C926.873,-1310.5 940.897,-1300.34 952,-1287 990.617,-1240.62 933.191,-1065.49 965.702,-1009.25"/>
<polygon fill="black" stroke="black" points="968.712,-1011.07 972,-1001 963.149,-1006.82 968.712,-1011.07"/>
</g>
<!-- C70226956375700 -->
<g id="node47" class="node"><title>C70226956375700</title>
</g>
<!-- C70226956375700&#45;&gt;C70226956331620 -->
<g id="edge33" class="edge"><title>C70226956375700&#45;&gt;C70226956331620</title>
<path fill="none" stroke="black" d="M357.686,-1570.25C372.749,-1503.14 304.696,-1430.11 360.743,-1368.29"/>
<polygon fill="black" stroke="black" points="363.427,-1370.56 368,-1361 358.465,-1365.62 363.427,-1370.56"/>
</g>
<!-- C70226955912580actuators -->
<g id="node49" class="node"><title>C70226955912580actuators</title>
<polygon fill="none" stroke="red" points="1221,-1082.5 1221,-1271.5 1607,-1271.5 1607,-1082.5 1221,-1082.5"/>
<text text-anchor="middle" x="1414" y="-1254" font-family="Times Roman,serif" font-size="15.00">can_in</text>
<polyline fill="none" stroke="red" points="1221,-1244.5 1607,-1244.5 "/>
<text text-anchor="middle" x="1414" y="-1227" font-family="Times Roman,serif" font-size="15.00">command</text>
<polyline fill="none" stroke="red" points="1221,-1217.5 1607,-1217.5 "/>
<text text-anchor="middle" x="1414" y="-1200" font-family="Times Roman,serif" font-size="15.00">actuators[DataServices::Actuators,Hbridge::Task]</text>
<polyline fill="none" stroke="red" points="1221,-1190.5 1607,-1190.5 "/>
<text text-anchor="middle" x="1414" y="-1173" font-family="Times Roman,serif" font-size="15.00">can_out</text>
<polyline fill="none" stroke="red" points="1221,-1163.5 1607,-1163.5 "/>
<text text-anchor="middle" x="1414" y="-1146" font-family="Times Roman,serif" font-size="15.00">errors</text>
<polyline fill="none" stroke="red" points="1221,-1136.5 1607,-1136.5 "/>
<text text-anchor="middle" x="1414" y="-1119" font-family="Times Roman,serif" font-size="15.00">state</text>
<polyline fill="none" stroke="red" points="1221,-1109.5 1607,-1109.5 "/>
<text text-anchor="middle" x="1414" y="-1092" font-family="Times Roman,serif" font-size="15.00">status</text>
</g>
<!-- C70226955912580controller -->
<g id="node51" class="node"><title>C70226955912580controller</title>
<polygon fill="none" stroke="red" points="1830.5,-1001 1830.5,-1109 2185.5,-1109 2185.5,-1001 1830.5,-1001"/>
<text text-anchor="middle" x="2008" y="-1091.5" font-family="Times Roman,serif" font-size="15.00">actuator_status</text>
<polyline fill="none" stroke="red" points="1830.5,-1082 2185.5,-1082 "/>
<text text-anchor="middle" x="2008" y="-1064.5" font-family="Times Roman,serif" font-size="15.00">command</text>
<polyline fill="none" stroke="red" points="1830.5,-1055 2185.5,-1055 "/>
<text text-anchor="middle" x="2008" y="-1037.5" font-family="Times Roman,serif" font-size="15.00">controller[DataServices::Motion2DController]</text>
<polyline fill="none" stroke="red" points="1830.5,-1028 2185.5,-1028 "/>
<text text-anchor="middle" x="2008" y="-1010.5" font-family="Times Roman,serif" font-size="15.00">actuator_command</text>
</g>
<!-- C70226955912580actuators&#45;&gt;C70226955912580controller -->
<g id="edge35" class="edge"><title>C70226955912580actuators:status&#45;&gt;C70226955912580controller:actuator_status</title>
<path fill="none" stroke="black" d="M1607,-1096C1702.63,-1096 1729.05,-1096 1819.82,-1096"/>
<polygon fill="black" stroke="black" points="1820,-1099.5 1830,-1096 1820,-1092.5 1820,-1099.5"/>
</g>
<!-- C70226955912580controller&#45;&gt;C70226955912580actuators -->
<g id="edge39" class="edge"><title>C70226955912580controller:actuator_command&#45;&gt;C70226955912580actuators:command</title>
<path fill="none" stroke="black" d="M1830,-1014C1799.28,-1014 1813.99,-1049.68 1794,-1073 1725.48,-1152.95 1716.35,-1226.13 1617.21,-1230.77"/>
<polygon fill="black" stroke="black" points="1616.92,-1227.27 1607,-1231 1617.08,-1234.27 1616.92,-1227.27"/>
</g>
<!-- C70226955912580command -->
<g id="node52" class="node"><title>C70226955912580command</title>
<polygon fill="none" stroke="red" points="1233,-1010 1233,-1064 1595,-1064 1595,-1010 1233,-1010"/>
<text text-anchor="middle" x="1414" y="-1046.5" font-family="Times Roman,serif" font-size="15.00">command[DataServices::Motion2DCommand]</text>
<polyline fill="none" stroke="red" points="1233,-1037 1595,-1037 "/>
<text text-anchor="middle" x="1414" y="-1019.5" font-family="Times Roman,serif" font-size="15.00">command</text>
</g>
<!-- C70226955912580command&#45;&gt;C70226955912580controller -->
<g id="edge37" class="edge"><title>C70226955912580command:command&#45;&gt;C70226955912580controller:command</title>
<path fill="none" stroke="black" d="M1595,-1023C1698,-1023 1722.06,-1066.08 1819.97,-1068.86"/>
<polygon fill="black" stroke="black" points="1819.95,-1072.36 1830,-1069 1820.05,-1065.36 1819.95,-1072.36"/>
</g>
<!-- C70226956375700command -->
<g id="node59" class="node"><title>C70226956375700command</title>
<polygon fill="none" stroke="red" points="29,-1578.5 29,-1605.5 319,-1605.5 319,-1578.5 29,-1578.5"/>
<text text-anchor="middle" x="174" y="-1588" font-family="Times Roman,serif" font-size="15.00">command[DataServices::Command]</text>
</g>
<!-- C70226805133940lowlevel -->
<g id="node60" class="node"><title>C70226805133940lowlevel</title>
<polygon fill="none" stroke="black" points="16,-2150.5 16,-2339.5 332,-2339.5 332,-2150.5 16,-2150.5"/>
<text text-anchor="middle" x="174" y="-2322" font-family="Times Roman,serif" font-size="15.00">DebugLED</text>
<polyline fill="none" stroke="black" points="16,-2312.5 332,-2312.5 "/>
<text text-anchor="middle" x="174" y="-2295" font-family="Times Roman,serif" font-size="15.00">LightValue</text>
<polyline fill="none" stroke="black" points="16,-2285.5 332,-2285.5 "/>
<text text-anchor="middle" x="174" y="-2268" font-family="Times Roman,serif" font-size="15.00">LongExposure</text>
<polyline fill="none" stroke="black" points="16,-2258.5 332,-2258.5 "/>
<text text-anchor="middle" x="174" y="-2241" font-family="Times Roman,serif" font-size="15.00">ShortExposure</text>
<polyline fill="none" stroke="black" points="16,-2231.5 332,-2231.5 "/>
<text text-anchor="middle" x="174" y="-2214" font-family="Times Roman,serif" font-size="15.00">lowlevel[LowLevelDriver::LowLevelTask]</text>
<polyline fill="none" stroke="black" points="16,-2204.5 332,-2204.5 "/>
<text text-anchor="middle" x="174" y="-2187" font-family="Times Roman,serif" font-size="15.00">depth_samples</text>
<polyline fill="none" stroke="black" points="16,-2177.5 332,-2177.5 "/>
<text text-anchor="middle" x="174" y="-2160" font-family="Times Roman,serif" font-size="15.00">state</text>
</g>
<!-- C70226805133940stateestimator -->
<g id="node62" class="node"><title>C70226805133940stateestimator</title>
<polygon fill="none" stroke="black" points="603.5,-1834.5 603.5,-2077.5 896.5,-2077.5 896.5,-1834.5 603.5,-1834.5"/>
<text text-anchor="middle" x="750" y="-2060" font-family="Times Roman,serif" font-size="15.00">depth_samples</text>
<polyline fill="none" stroke="black" points="603.5,-2050.5 896.5,-2050.5 "/>
<text text-anchor="middle" x="750" y="-2033" font-family="Times Roman,serif" font-size="15.00">fog_samples</text>
<polyline fill="none" stroke="black" points="603.5,-2023.5 896.5,-2023.5 "/>
<text text-anchor="middle" x="750" y="-2006" font-family="Times Roman,serif" font-size="15.00">imu_sensor_samples</text>
<polyline fill="none" stroke="black" points="603.5,-1996.5 896.5,-1996.5 "/>
<text text-anchor="middle" x="750" y="-1979" font-family="Times Roman,serif" font-size="15.00">orientation_samples</text>
<polyline fill="none" stroke="black" points="603.5,-1969.5 896.5,-1969.5 "/>
<text text-anchor="middle" x="750" y="-1952" font-family="Times Roman,serif" font-size="15.00">position_samples</text>
<polyline fill="none" stroke="black" points="603.5,-1942.5 896.5,-1942.5 "/>
<text text-anchor="middle" x="750" y="-1925" font-family="Times Roman,serif" font-size="15.00">stateestimator[StateEstimator::Task]</text>
<polyline fill="none" stroke="black" points="603.5,-1915.5 896.5,-1915.5 "/>
<text text-anchor="middle" x="750" y="-1898" font-family="Times Roman,serif" font-size="15.00">pose_acceleration</text>
<polyline fill="none" stroke="black" points="603.5,-1888.5 896.5,-1888.5 "/>
<text text-anchor="middle" x="750" y="-1871" font-family="Times Roman,serif" font-size="15.00">pose_samples</text>
<polyline fill="none" stroke="black" points="603.5,-1861.5 896.5,-1861.5 "/>
<text text-anchor="middle" x="750" y="-1844" font-family="Times Roman,serif" font-size="15.00">state</text>
</g>
<!-- C70226805133940lowlevel&#45;&gt;C70226805133940stateestimator -->
<g id="edge45" class="edge"><title>C70226805133940lowlevel:depth_samples&#45;&gt;C70226805133940stateestimator:depth_samples</title>
<path fill="none" stroke="black" d="M332,-2191C461.507,-2191 469.634,-2070.61 592.741,-2064.26"/>
<polygon fill="black" stroke="black" points="593.092,-2067.75 603,-2064 592.914,-2060.75 593.092,-2067.75"/>
</g>
<!-- Cinterface70226805133940 -->
<g id="node69" class="node"><title>Cinterface70226805133940</title>
<polygon fill="none" stroke="blue" points="1323,-1862 1323,-1916 1505,-1916 1505,-1862 1323,-1862"/>
<text text-anchor="middle" x="1414" y="-1898.5" font-family="Times Roman,serif" font-size="15.00">Composition Interface</text>
<polyline fill="none" stroke="blue" points="1323,-1889 1505,-1889 "/>
<text text-anchor="middle" x="1414" y="-1871.5" font-family="Times Roman,serif" font-size="15.00">pose_samples</text>
</g>
<!-- C70226805133940stateestimator&#45;&gt;Cinterface70226805133940 -->
<g id="edge52" class="edge"><title>C70226805133940stateestimator:pose_samples&#45;&gt;Cinterface70226805133940:pose_samples</title>
<path fill="none" stroke="black" stroke-dasharray="5,2" d="M897,-1875C1082.91,-1875 1131.91,-1875 1312.88,-1875"/>
<polygon fill="black" stroke="black" points="1313,-1878.5 1323,-1875 1313,-1871.5 1313,-1878.5"/>
</g>
<!-- C70226805133940fog -->
<g id="node63" class="node"><title>C70226805133940fog</title>
<polygon fill="none" stroke="black" points="89.5,-1996.5 89.5,-2131.5 258.5,-2131.5 258.5,-1996.5 89.5,-1996.5"/>
<text text-anchor="middle" x="174" y="-2114" font-family="Times Roman,serif" font-size="15.00">config</text>
<polyline fill="none" stroke="black" points="89.5,-2104.5 258.5,-2104.5 "/>
<text text-anchor="middle" x="174" y="-2087" font-family="Times Roman,serif" font-size="15.00">fog[Dsp3000::Task]</text>
<polyline fill="none" stroke="black" points="89.5,-2077.5 258.5,-2077.5 "/>
<text text-anchor="middle" x="174" y="-2060" font-family="Times Roman,serif" font-size="15.00">orientation_samples</text>
<polyline fill="none" stroke="black" points="89.5,-2050.5 258.5,-2050.5 "/>
<text text-anchor="middle" x="174" y="-2033" font-family="Times Roman,serif" font-size="15.00">rotation</text>
<polyline fill="none" stroke="black" points="89.5,-2023.5 258.5,-2023.5 "/>
<text text-anchor="middle" x="174" y="-2006" font-family="Times Roman,serif" font-size="15.00">state</text>
</g>
<!-- C70226805133940fog&#45;&gt;C70226805133940stateestimator -->
<g id="edge47" class="edge"><title>C70226805133940fog:rotation&#45;&gt;C70226805133940stateestimator:fog_samples</title>
<path fill="none" stroke="black" d="M259,-2037C408.455,-2037 448.336,-2037 592.869,-2037"/>
<polygon fill="black" stroke="black" points="593,-2040.5 603,-2037 593,-2033.5 593,-2040.5"/>
</g>
<!-- C70226805133940imu -->
<g id="node65" class="node"><title>C70226805133940imu</title>
<polygon fill="none" stroke="black" points="87,-1870 87,-1978 261,-1978 261,-1870 87,-1870"/>
<text text-anchor="middle" x="174" y="-1960.5" font-family="Times Roman,serif" font-size="15.00">imu[XsensImu::Task]</text>
<polyline fill="none" stroke="black" points="87,-1951 261,-1951 "/>
<text text-anchor="middle" x="174" y="-1933.5" font-family="Times Roman,serif" font-size="15.00">calibrated_sensors</text>
<polyline fill="none" stroke="black" points="87,-1924 261,-1924 "/>
<text text-anchor="middle" x="174" y="-1906.5" font-family="Times Roman,serif" font-size="15.00">orientation_samples</text>
<polyline fill="none" stroke="black" points="87,-1897 261,-1897 "/>
<text text-anchor="middle" x="174" y="-1879.5" font-family="Times Roman,serif" font-size="15.00">state</text>
</g>
<!-- C70226805133940imu&#45;&gt;C70226805133940stateestimator -->
<g id="edge49" class="edge"><title>C70226805133940imu:orientation_samples&#45;&gt;C70226805133940stateestimator:orientation_samples</title>
<path fill="none" stroke="black" d="M261,-1910C412.933,-1910 446.114,-1979.76 592.712,-1982.89"/>
<polygon fill="black" stroke="black" points="592.964,-1986.39 603,-1983 593.038,-1979.39 592.964,-1986.39"/>
</g>
<!-- C70226805133940 -->
<g id="node68" class="node"><title>C70226805133940</title>
</g>
</g>
</svg>
