<?xml version="1.0" encoding="UTF-8" standalone="no"?>
<!DOCTYPE svg PUBLIC "-//W3C//DTD SVG 1.1//EN"
 "http://www.w3.org/Graphics/SVG/1.1/DTD/svg11.dtd">
<!-- Generated by graphviz version 2.26.3 (20100126.1600)
 -->
<!-- Title: _anonymous_0 Pages: 1 -->
<svg width="1246pt" height="1565pt"
 viewBox="0.00 0.00 1246.00 1565.00" xmlns="http://www.w3.org/2000/svg" xmlns:xlink="http://www.w3.org/1999/xlink">
<g id="graph1" class="graph" transform="scale(1 1) rotate(0) translate(4 1561)">
<title>_anonymous_0</title>
<polygon fill="white" stroke="white" points="-4,5 -4,-1561 1243,-1561 1243,5 -4,5"/>
<g id="graph2" class="cluster"><title>cluster_70166216153500</title>
<polygon fill="none" stroke="#2a7fff" points="24,-8 24,-244 550,-244 550,-8 24,-8"/>
<text text-anchor="start" x="203.5" y="-227.233" font-family="Times Roman,serif" font-size="14.00" fill="#2a7fff">Deployments::LowLevel</text>
<text text-anchor="start" x="215.5" y="-210.433" font-family="Times Roman,serif" font-size="14.00" fill="#2a7fff">log:true,on:localhost</text>
<text text-anchor="start" x="284" y="-193.633" font-family="Times Roman,serif" font-size="14.00" fill="#2a7fff"> </text>
<text text-anchor="start" x="192" y="-176.833" font-family="Times Roman,serif" font-size="14.00" fill="#2a7fff"> [Process name: low_level]</text>
<text text-anchor="start" x="376" y="-176.833" font-family="Times Roman,serif" font-size="14.00"> </text>
</g>
<g id="graph3" class="cluster"><title>cluster_70166216226620</title>
<polygon fill="none" stroke="#aa00d4" points="8,-1333 8,-1529 564,-1529 564,-1333 8,-1333"/>
<text text-anchor="start" x="215.5" y="-1512.23" font-family="Times Roman,serif" font-size="14.00" fill="#aa00d4">Deployments::Sonar</text>
<text text-anchor="start" x="215" y="-1495.43" font-family="Times Roman,serif" font-size="14.00" fill="#aa00d4">log:true,on:localhost</text>
<text text-anchor="start" x="283.5" y="-1478.63" font-family="Times Roman,serif" font-size="14.00" fill="#aa00d4"> </text>
<text text-anchor="start" x="205" y="-1461.83" font-family="Times Roman,serif" font-size="14.00" fill="#aa00d4"> [Process name: sonar]</text>
<text text-anchor="start" x="362" y="-1461.83" font-family="Times Roman,serif" font-size="14.00"> </text>
</g>
<g id="graph4" class="cluster"><title>cluster_70166215998700</title>
<polygon fill="none" stroke="#37c637" points="58,-719 58,-915 546,-915 546,-719 58,-719"/>
<text text-anchor="start" x="239.5" y="-898.233" font-family="Times Roman,serif" font-size="14.00" fill="#37c637">Deployments::Fog</text>
<text text-anchor="start" x="230.5" y="-881.433" font-family="Times Roman,serif" font-size="14.00" fill="#37c637">log:true,on:localhost</text>
<text text-anchor="start" x="299" y="-864.633" font-family="Times Roman,serif" font-size="14.00" fill="#37c637"> </text>
<text text-anchor="start" x="229" y="-847.833" font-family="Times Roman,serif" font-size="14.00" fill="#37c637"> [Process name: fog]</text>
<text text-anchor="start" x="369" y="-847.833" font-family="Times Roman,serif" font-size="14.00"> </text>
</g>
<g id="graph5" class="cluster"><title>cluster_70166216073820</title>
<polygon fill="none" stroke="#62816e" points="58,-516 58,-692 554,-692 554,-516 58,-516"/>
<text text-anchor="start" x="234.5" y="-675.233" font-family="Times Roman,serif" font-size="14.00" fill="#62816e">Deployments::Xsens</text>
<text text-anchor="start" x="234.5" y="-658.433" font-family="Times Roman,serif" font-size="14.00" fill="#62816e">log:true,on:localhost</text>
<text text-anchor="start" x="303" y="-641.633" font-family="Times Roman,serif" font-size="14.00" fill="#62816e"> </text>
<text text-anchor="start" x="224" y="-624.833" font-family="Times Roman,serif" font-size="14.00" fill="#62816e"> [Process name: xsens]</text>
<text text-anchor="start" x="382" y="-624.833" font-family="Times Roman,serif" font-size="14.00"> </text>
</g>
<g id="graph6" class="cluster"><title>cluster_70166216433940</title>
<polygon fill="none" stroke="#d40055" points="399,-923 399,-1325 1230,-1325 1230,-923 399,-923"/>
<text text-anchor="start" x="715" y="-1308.23" font-family="Times Roman,serif" font-size="14.00" fill="#d40055">Deployments::AvalonControl</text>
<text text-anchor="start" x="743" y="-1291.43" font-family="Times Roman,serif" font-size="14.00" fill="#d40055">log:true,on:localhost</text>
<text text-anchor="start" x="811.5" y="-1274.63" font-family="Times Roman,serif" font-size="14.00" fill="#d40055"> </text>
<text text-anchor="start" x="701.5" y="-1257.83" font-family="Times Roman,serif" font-size="14.00" fill="#d40055"> [Process name: avalon_control]</text>
<text text-anchor="start" x="921.5" y="-1257.83" font-family="Times Roman,serif" font-size="14.00"> </text>
</g>
<g id="graph7" class="cluster"><title>cluster_70166215947080</title>
<polygon fill="none" stroke="#bb9c21" points="374,-252 374,-508 894,-508 894,-252 374,-252"/>
<text text-anchor="start" x="534" y="-491.233" font-family="Times Roman,serif" font-size="14.00" fill="#bb9c21">Deployments::PoseEstimator</text>
<text text-anchor="start" x="562.5" y="-474.433" font-family="Times Roman,serif" font-size="14.00" fill="#bb9c21">log:true,on:localhost</text>
<text text-anchor="start" x="631" y="-457.633" font-family="Times Roman,serif" font-size="14.00" fill="#bb9c21"> </text>
<text text-anchor="start" x="519" y="-440.833" font-family="Times Roman,serif" font-size="14.00" fill="#bb9c21"> [Process name: pose_estimator]</text>
<text text-anchor="start" x="743" y="-440.833" font-family="Times Roman,serif" font-size="14.00"> </text>
</g>
<!-- 70166216554940 -->
<g id="node1" class="node"><title>70166216554940</title>
<polygon fill="none" stroke="black" points="659,-1010 659,-1031 883,-1031 883,-1010 659,-1010"/>
<text text-anchor="start" x="708" y="-1017.23" font-family="Arial" font-size="14.00">motion_commands </text>
<polygon fill="none" stroke="black" points="659,-990 659,-1010 883,-1010 883,-990 659,-990"/>
<text text-anchor="start" x="721.5" y="-996.733" font-family="Arial" font-size="14.00">pose_samples </text>
<polygon fill="none" stroke="black" points="659,-970 659,-990 883,-990 883,-970 659,-970"/>
<text text-anchor="start" x="662" y="-976.733" font-family="Arial" font-size="14.00">AvalonControl::MotionControlTask </text>
<polygon fill="none" stroke="black" points="659,-950 659,-970 883,-970 883,-950 659,-950"/>
<text text-anchor="start" x="748.5" y="-956.733" font-family="Arial" font-size="14.00">debug </text>
<polygon fill="none" stroke="black" points="659,-930 659,-950 883,-950 883,-930 659,-930"/>
<text text-anchor="start" x="705.5" y="-936.733" font-family="Arial" font-size="14.00">hbridge_commands </text>
</g>
<!-- 70166215034420 -->
<g id="node3" class="node"><title>70166215034420</title>
<polygon fill="none" stroke="black" points="986,-1097 986,-1118 1222,-1118 1222,-1097 986,-1097"/>
<text text-anchor="start" x="1073.5" y="-1104.23" font-family="Arial" font-size="14.00">can.stats </text>
<polygon fill="none" stroke="black" points="986,-1077 986,-1097 1222,-1097 1222,-1077 986,-1077"/>
<text text-anchor="start" x="1051" y="-1083.73" font-family="Arial" font-size="14.00">hbridge.can_out </text>
<polygon fill="none" stroke="black" points="986,-1057 986,-1077 1222,-1077 1222,-1057 986,-1057"/>
<text text-anchor="start" x="1057" y="-1063.73" font-family="Arial" font-size="14.00">hbridge.errors </text>
<polygon fill="none" stroke="black" points="986,-1037 986,-1057 1222,-1057 1222,-1037 986,-1037"/>
<text text-anchor="start" x="1033" y="-1043.73" font-family="Arial" font-size="14.00">motion_control.debug </text>
<polygon fill="none" stroke="black" points="986,-1017 986,-1037 1222,-1037 1222,-1017 986,-1017"/>
<text text-anchor="start" x="989.5" y="-1023.73" font-family="Arial" font-size="14.00">motion_control.hbridge_commands </text>
<polygon fill="none" stroke="black" points="986,-997 986,-1017 1222,-1017 1222,-997 986,-997"/>
<text text-anchor="start" x="989" y="-1003.73" font-family="Arial" font-size="14.00">Logger::Logger </text>
</g>
<!-- 70166216554940&#45;&gt;70166215034420 -->
<g id="edge2" class="edge"><title>70166216554940:debug&#45;&gt;70166215034420:motion_control_debug</title>
<path fill="none" stroke="black" d="M883,-960C897.511,-960 893.48,-975.006 904,-985 918.363,-998.645 952.301,-1035.25 975.96,-1044.73"/>
<polygon fill="black" stroke="black" points="975.475,-1048.21 986,-1047 977.017,-1041.38 975.475,-1048.21"/>
<text text-anchor="middle" x="936" y="-1046.4" font-family="Times Roman,serif" font-size="14.00">buffer:10</text>
</g>
<!-- 70166216554940&#45;&gt;70166215034420 -->
<g id="edge4" class="edge"><title>70166216554940:hbridge_commands&#45;&gt;70166215034420:motion_control_hbridge_commands</title>
<path fill="none" stroke="black" d="M883,-940C922.136,-940 940.19,-935.464 968,-963 985.716,-980.541 965.315,-1014.04 976.256,-1024.09"/>
<polygon fill="black" stroke="black" points="975.416,-1027.49 986,-1027 977.422,-1020.78 975.416,-1027.49"/>
<text text-anchor="middle" x="936" y="-968.4" font-family="Times Roman,serif" font-size="14.00">buffer:10</text>
</g>
<!-- 70166216625660 -->
<g id="node5" class="node"><title>70166216625660</title>
<polygon fill="none" stroke="black" points="382,-399 382,-420 530,-420 530,-399 382,-399"/>
<text text-anchor="start" x="404.5" y="-406.233" font-family="Arial" font-size="14.00">depth_samples </text>
<polygon fill="none" stroke="black" points="382,-379 382,-399 530,-399 530,-379 382,-379"/>
<text text-anchor="start" x="412" y="-385.733" font-family="Arial" font-size="14.00">fog_samples </text>
<polygon fill="none" stroke="black" points="382,-359 382,-379 530,-379 530,-359 382,-359"/>
<text text-anchor="start" x="385.5" y="-365.733" font-family="Arial" font-size="14.00">imu_sensor_samples </text>
<polygon fill="none" stroke="black" points="382,-339 382,-359 530,-359 530,-339 382,-339"/>
<text text-anchor="start" x="390" y="-345.733" font-family="Arial" font-size="14.00">orientation_samples </text>
<polygon fill="none" stroke="black" points="382,-319 382,-339 530,-339 530,-319 382,-319"/>
<text text-anchor="start" x="398" y="-325.733" font-family="Arial" font-size="14.00">position_samples </text>
<polygon fill="none" stroke="black" points="382,-299 382,-319 530,-319 530,-299 382,-299"/>
<text text-anchor="start" x="385" y="-305.733" font-family="Arial" font-size="14.00">StateEstimator::Task </text>
<polygon fill="none" stroke="black" points="382,-279 382,-299 530,-299 530,-279 382,-279"/>
<text text-anchor="start" x="395.5" y="-285.733" font-family="Arial" font-size="14.00">pose_acceleration </text>
<polygon fill="none" stroke="black" points="382,-259 382,-279 530,-279 530,-259 382,-259"/>
<text text-anchor="start" x="406.5" y="-265.733" font-family="Arial" font-size="14.00">pose_samples </text>
</g>
<!-- 70166216625660&#45;&gt;70166216554940 -->
<g id="edge6" class="edge"><title>70166216625660:pose_samples&#45;&gt;70166216554940:pose_samples</title>
<path fill="none" stroke="black" d="M530,-269C609.094,-269 579.273,-941.265 649.433,-996.412"/>
<polygon fill="black" stroke="black" points="648.408,-999.765 659,-1000 650.866,-993.211 648.408,-999.765"/>
<text text-anchor="middle" x="606" y="-985.4" font-family="Times Roman,serif" font-size="14.00">buffer:1</text>
</g>
<!-- 70166214958340 -->
<g id="node8" class="node"><title>70166214958340</title>
<polygon fill="none" stroke="black" points="656,-303 656,-324 886,-324 886,-303 656,-303"/>
<text text-anchor="start" x="659.5" y="-310.233" font-family="Arial" font-size="14.00">pose_estimator.pose_acceleration </text>
<polygon fill="none" stroke="black" points="656,-283 656,-303 886,-303 886,-283 656,-283"/>
<text text-anchor="start" x="670.5" y="-289.733" font-family="Arial" font-size="14.00">pose_estimator.pose_samples </text>
<polygon fill="none" stroke="black" points="656,-263 656,-283 886,-283 886,-263 656,-263"/>
<text text-anchor="start" x="659" y="-269.733" font-family="Arial" font-size="14.00">Logger::Logger </text>
</g>
<!-- 70166216625660&#45;&gt;70166214958340 -->
<g id="edge8" class="edge"><title>70166216625660:pose_acceleration&#45;&gt;70166214958340:pose_estimator_pose_acceleration</title>
<path fill="none" stroke="black" d="M530,-289C542.322,-289 616.634,-307.631 645.907,-312.726"/>
<polygon fill="black" stroke="black" points="645.64,-316.22 656,-314 646.517,-309.275 645.64,-316.22"/>
<text text-anchor="middle" x="606" y="-316.4" font-family="Times Roman,serif" font-size="14.00">buffer:10</text>
</g>
<!-- 70166216625660&#45;&gt;70166214958340 -->
<g id="edge10" class="edge"><title>70166216625660:pose_samples&#45;&gt;70166214958340:pose_estimator_pose_samples</title>
<path fill="none" stroke="black" d="M530,-269C578.101,-269 593.901,-256.792 638,-276 643.675,-278.472 645.179,-283.542 647.368,-287.505"/>
<polygon fill="black" stroke="black" points="645.685,-290.582 656,-293 649.444,-284.677 645.685,-290.582"/>
<text text-anchor="middle" x="606" y="-281.4" font-family="Times Roman,serif" font-size="14.00">buffer:10</text>
</g>
<!-- 70166216677180 -->
<g id="node10" class="node"><title>70166216677180</title>
<polygon fill="none" stroke="black" points="67,-806 67,-827 206,-827 206,-806 67,-806"/>
<text text-anchor="start" x="115" y="-813.233" font-family="Arial" font-size="14.00">config </text>
<polygon fill="none" stroke="black" points="67,-786 67,-806 206,-806 206,-786 67,-786"/>
<text text-anchor="start" x="70" y="-792.733" font-family="Arial" font-size="14.00">Dsp3000::Task </text>
<polygon fill="none" stroke="black" points="67,-766 67,-786 206,-786 206,-766 67,-766"/>
<text text-anchor="start" x="70.5" y="-772.733" font-family="Arial" font-size="14.00">orientation_samples </text>
<polygon fill="none" stroke="black" points="67,-746 67,-766 206,-766 206,-746 67,-746"/>
<text text-anchor="start" x="111" y="-752.733" font-family="Arial" font-size="14.00">rotation </text>
<polygon fill="none" stroke="black" points="67,-726 67,-746 206,-746 206,-726 67,-726"/>
<text text-anchor="start" x="119" y="-732.733" font-family="Arial" font-size="14.00">state </text>
</g>
<!-- 70166216677180&#45;&gt;70166216625660 -->
<g id="edge12" class="edge"><title>70166216677180:rotation&#45;&gt;70166216625660:fog_samples</title>
<path fill="none" stroke="black" d="M206,-756C222.111,-756 328.628,-709.104 338,-696 375.978,-642.898 319.645,-414.925 372.179,-391.028"/>
<polygon fill="black" stroke="black" points="372.915,-394.45 382,-389 371.499,-387.595 372.915,-394.45"/>
<text text-anchor="middle" x="306" y="-736.4" font-family="Times Roman,serif" font-size="14.00">buffer:1</text>
</g>
<!-- 70166214972780 -->
<g id="node13" class="node"><title>70166214972780</title>
<polygon fill="none" stroke="black" points="374,-772 374,-793 538,-793 538,-772 374,-772"/>
<text text-anchor="start" x="377.5" y="-779.233" font-family="Arial" font-size="14.00">fog.orientation_samples </text>
<polygon fill="none" stroke="black" points="374,-752 374,-772 538,-772 538,-752 374,-752"/>
<text text-anchor="start" x="418" y="-758.733" font-family="Arial" font-size="14.00">fog.rotation </text>
<polygon fill="none" stroke="black" points="374,-732 374,-752 538,-752 538,-732 374,-732"/>
<text text-anchor="start" x="377" y="-738.733" font-family="Arial" font-size="14.00">Logger::Logger </text>
</g>
<!-- 70166216677180&#45;&gt;70166214972780 -->
<g id="edge14" class="edge"><title>70166216677180:orientation_samples&#45;&gt;70166214972780:fog_orientation_samples</title>
<path fill="none" stroke="black" d="M206,-776C277.228,-776 297.407,-782.359 363.85,-782.955"/>
<polygon fill="black" stroke="black" points="363.985,-786.456 374,-783 364.016,-779.456 363.985,-786.456"/>
<text text-anchor="middle" x="306" y="-788.4" font-family="Times Roman,serif" font-size="14.00">buffer:10</text>
</g>
<!-- 70166216677180&#45;&gt;70166214972780 -->
<g id="edge16" class="edge"><title>70166216677180:rotation&#45;&gt;70166214972780:fog_rotation</title>
<path fill="none" stroke="black" d="M206,-756C264.668,-756 279.487,-752.733 338,-757 350.083,-757.881 355.205,-760.253 363.826,-761.384"/>
<polygon fill="black" stroke="black" points="363.807,-764.889 374,-762 364.23,-757.902 363.807,-764.889"/>
<text text-anchor="middle" x="306" y="-762.4" font-family="Times Roman,serif" font-size="14.00">buffer:10</text>
</g>
<!-- 70166216725640 -->
<g id="node15" class="node"><title>70166216725640</title>
<polygon fill="none" stroke="black" points="16,-1420 16,-1441 256,-1441 256,-1420 16,-1420"/>
<text text-anchor="start" x="98" y="-1427.23" font-family="Arial" font-size="14.00">config_port </text>
<polygon fill="none" stroke="black" points="16,-1400 16,-1420 256,-1420 256,-1400 16,-1400"/>
<text text-anchor="start" x="19" y="-1406.73" font-family="Arial" font-size="14.00">SonarDriver::SonarDriverMicronTask </text>
<polygon fill="none" stroke="black" points="16,-1380 16,-1400 256,-1400 256,-1380 16,-1380"/>
<text text-anchor="start" x="59" y="-1386.73" font-family="Arial" font-size="14.00">CurrentGroundDistance </text>
<polygon fill="none" stroke="black" points="16,-1360 16,-1380 256,-1380 256,-1360 16,-1360"/>
<text text-anchor="start" x="99" y="-1366.73" font-family="Arial" font-size="14.00">SonarScan </text>
<polygon fill="none" stroke="black" points="16,-1340 16,-1360 256,-1360 256,-1340 16,-1340"/>
<text text-anchor="start" x="118.5" y="-1346.73" font-family="Arial" font-size="14.00">state </text>
</g>
<!-- 70166215017480 -->
<g id="node17" class="node"><title>70166215017480</title>
<polygon fill="none" stroke="black" points="357,-1387 357,-1408 556,-1408 556,-1387 357,-1387"/>
<text text-anchor="start" x="360.5" y="-1394.23" font-family="Arial" font-size="14.00">sonar.CurrentGroundDistance </text>
<polygon fill="none" stroke="black" points="357,-1367 357,-1387 556,-1387 556,-1367 357,-1367"/>
<text text-anchor="start" x="400.5" y="-1373.73" font-family="Arial" font-size="14.00">sonar.SonarScan </text>
<polygon fill="none" stroke="black" points="357,-1347 357,-1367 556,-1367 556,-1347 357,-1347"/>
<text text-anchor="start" x="360" y="-1353.73" font-family="Arial" font-size="14.00">Logger::Logger </text>
</g>
<!-- 70166216725640&#45;&gt;70166215017480 -->
<g id="edge18" class="edge"><title>70166216725640:CurrentGroundDistance&#45;&gt;70166215017480:sonar_CurrentGroundDistance</title>
<path fill="none" stroke="black" d="M256,-1390C297.336,-1390 309.946,-1396.74 346.569,-1397.85"/>
<polygon fill="black" stroke="black" points="346.95,-1401.35 357,-1398 347.052,-1394.35 346.95,-1401.35"/>
<text text-anchor="middle" x="306" y="-1402.4" font-family="Times Roman,serif" font-size="14.00">buffer:10</text>
</g>
<!-- 70166216725640&#45;&gt;70166215017480 -->
<g id="edge20" class="edge"><title>70166216725640:SonarScan&#45;&gt;70166215017480:sonar_SonarScan</title>
<path fill="none" stroke="black" d="M256,-1370C264.049,-1370 265.963,-1368.45 274,-1368 302.401,-1366.43 310.249,-1361.76 338,-1368 342.558,-1369.02 344.972,-1371.27 347.415,-1373.27"/>
<polygon fill="black" stroke="black" points="346.411,-1376.63 357,-1377 348.951,-1370.11 346.411,-1376.63"/>
<text text-anchor="middle" x="306" y="-1373.4" font-family="Times Roman,serif" font-size="14.00">buffer:10</text>
</g>
<!-- 70166216831120 -->
<g id="node19" class="node"><title>70166216831120</title>
<polygon fill="none" stroke="black" points="407,-1151 407,-1172 505,-1172 505,-1151 407,-1151"/>
<text text-anchor="start" x="433" y="-1158.23" font-family="Arial" font-size="14.00">can_in </text>
<polygon fill="none" stroke="black" points="407,-1131 407,-1151 505,-1151 505,-1131 407,-1131"/>
<text text-anchor="start" x="410" y="-1137.73" font-family="Arial" font-size="14.00">Hbridge::Task </text>
<polygon fill="none" stroke="black" points="407,-1111 407,-1131 505,-1131 505,-1111 407,-1111"/>
<text text-anchor="start" x="428.5" y="-1117.73" font-family="Arial" font-size="14.00">can_out </text>
<polygon fill="none" stroke="black" points="407,-1091 407,-1111 505,-1111 505,-1091 407,-1091"/>
<text text-anchor="start" x="435" y="-1097.73" font-family="Arial" font-size="14.00">errors </text>
<polygon fill="none" stroke="black" points="407,-1071 407,-1091 505,-1091 505,-1071 407,-1071"/>
<text text-anchor="start" x="438.5" y="-1077.73" font-family="Arial" font-size="14.00">state </text>
</g>
<!-- 70166216831120&#45;&gt;70166215034420 -->
<g id="edge24" class="edge"><title>70166216831120:can_out&#45;&gt;70166215034420:hbridge_can_out</title>
<path fill="none" stroke="black" d="M505,-1121C715.858,-1121 769.959,-1088.09 975.765,-1087.03"/>
<polygon fill="black" stroke="black" points="976.009,-1090.53 986,-1087 975.991,-1083.53 976.009,-1090.53"/>
<text text-anchor="middle" x="771" y="-1120.4" font-family="Times Roman,serif" font-size="14.00">buffer:21</text>
</g>
<!-- 70166216831120&#45;&gt;70166215034420 -->
<g id="edge26" class="edge"><title>70166216831120:errors&#45;&gt;70166215034420:hbridge_errors</title>
<path fill="none" stroke="black" d="M505,-1101C573.695,-1101 587.713,-1075.48 656,-1068 798.378,-1052.41 837.514,-1066.32 975.864,-1066.98"/>
<polygon fill="black" stroke="black" points="975.992,-1070.48 986,-1067 976.008,-1063.48 975.992,-1070.48"/>
<text text-anchor="middle" x="771" y="-1073.4" font-family="Times Roman,serif" font-size="14.00">buffer:10</text>
</g>
<!-- 70166216972440 -->
<g id="node21" class="node"><title>70166216972440</title>
<polygon fill="none" stroke="black" points="723,-1216 723,-1237 820,-1237 820,-1216 723,-1216"/>
<text text-anchor="start" x="764" y="-1223.23" font-family="Arial" font-size="14.00">in </text>
<polygon fill="none" stroke="black" points="723,-1196 723,-1216 820,-1216 820,-1196 723,-1196"/>
<text text-anchor="start" x="726" y="-1202.73" font-family="Arial" font-size="14.00">Canbus::Task </text>
<polygon fill="none" stroke="black" points="723,-1176 723,-1196 820,-1196 820,-1176 723,-1176"/>
<text text-anchor="start" x="754" y="-1182.73" font-family="Arial" font-size="14.00">state </text>
<polygon fill="none" stroke="black" points="723,-1156 723,-1176 820,-1176 820,-1156 723,-1156"/>
<text text-anchor="start" x="754.5" y="-1162.73" font-family="Arial" font-size="14.00">stats </text>
</g>
<!-- 70166216831120&#45;&gt;70166216972440 -->
<g id="edge22" class="edge"><title>70166216831120:can_out&#45;&gt;70166216972440:in</title>
<path fill="none" stroke="black" d="M505,-1121C609.263,-1121 614.992,-1220.28 712.905,-1226.68"/>
<polygon fill="black" stroke="black" points="712.893,-1230.18 723,-1227 713.117,-1223.18 712.893,-1230.18"/>
<text text-anchor="middle" x="606" y="-1201.4" font-family="Times Roman,serif" font-size="14.00">data</text>
</g>
<!-- 70166216972440&#45;&gt;70166215034420 -->
<g id="edge34" class="edge"><title>70166216972440:stats&#45;&gt;70166215034420:can_stats</title>
<path fill="none" stroke="black" d="M820,-1166C888.138,-1166 909.028,-1160.13 968,-1126 973.661,-1122.72 975.011,-1117.22 977.329,-1113.16"/>
<polygon fill="black" stroke="black" points="979.195,-1116.12 986,-1108 975.616,-1110.1 979.195,-1116.12"/>
<text text-anchor="middle" x="936" y="-1162.4" font-family="Times Roman,serif" font-size="14.00">buffer:21</text>
</g>
<!-- 70166216909780 -->
<g id="node24" class="node"><title>70166216909780</title>
<polygon fill="none" stroke="black" points="67,-583 67,-604 206,-604 206,-583 67,-583"/>
<text text-anchor="start" x="70" y="-590.233" font-family="Arial" font-size="14.00">XsensImu::Task </text>
<polygon fill="none" stroke="black" points="67,-563 67,-583 206,-583 206,-563 67,-563"/>
<text text-anchor="start" x="74" y="-569.733" font-family="Arial" font-size="14.00">calibrated_sensors </text>
<polygon fill="none" stroke="black" points="67,-543 67,-563 206,-563 206,-543 67,-543"/>
<text text-anchor="start" x="70.5" y="-549.733" font-family="Arial" font-size="14.00">orientation_samples </text>
<polygon fill="none" stroke="black" points="67,-523 67,-543 206,-543 206,-523 67,-523"/>
<text text-anchor="start" x="119" y="-529.733" font-family="Arial" font-size="14.00">state </text>
</g>
<!-- 70166216909780&#45;&gt;70166216625660 -->
<g id="edge28" class="edge"><title>70166216909780:orientation_samples&#45;&gt;70166216625660:orientation_samples</title>
<path fill="none" stroke="black" d="M206,-553C294.853,-553 205.213,-421.243 274,-365 308.851,-336.505 330.228,-347.11 371.881,-348.792"/>
<polygon fill="black" stroke="black" points="371.93,-352.294 382,-349 372.074,-345.295 371.93,-352.294"/>
<text text-anchor="middle" x="306" y="-370.4" font-family="Times Roman,serif" font-size="14.00">buffer:1</text>
</g>
<!-- 70166214987660 -->
<g id="node27" class="node"><title>70166214987660</title>
<polygon fill="none" stroke="black" points="366,-568 366,-589 546,-589 546,-568 366,-568"/>
<text text-anchor="start" x="373" y="-575.233" font-family="Arial" font-size="14.00">xsens.calibrated_sensors </text>
<polygon fill="none" stroke="black" points="366,-548 366,-568 546,-568 546,-548 366,-548"/>
<text text-anchor="start" x="369.5" y="-554.733" font-family="Arial" font-size="14.00">xsens.orientation_samples </text>
<polygon fill="none" stroke="black" points="366,-528 366,-548 546,-548 546,-528 366,-528"/>
<text text-anchor="start" x="369" y="-534.733" font-family="Arial" font-size="14.00">Logger::Logger </text>
</g>
<!-- 70166216909780&#45;&gt;70166214987660 -->
<g id="edge30" class="edge"><title>70166216909780:calibrated_sensors&#45;&gt;70166214987660:xsens_calibrated_sensors</title>
<path fill="none" stroke="black" d="M206,-573C273.686,-573 292.985,-578.428 355.946,-578.958"/>
<polygon fill="black" stroke="black" points="355.986,-582.459 366,-579 356.015,-575.459 355.986,-582.459"/>
<text text-anchor="middle" x="306" y="-584.4" font-family="Times Roman,serif" font-size="14.00">buffer:10</text>
</g>
<!-- 70166216909780&#45;&gt;70166214987660 -->
<g id="edge32" class="edge"><title>70166216909780:orientation_samples&#45;&gt;70166214987660:xsens_orientation_samples</title>
<path fill="none" stroke="black" d="M206,-553C264.668,-553 279.495,-549.619 338,-554 346.227,-554.616 350.301,-556.146 355.682,-557.125"/>
<polygon fill="black" stroke="black" points="355.74,-560.643 366,-558 356.331,-553.668 355.74,-560.643"/>
<text text-anchor="middle" x="306" y="-559.4" font-family="Times Roman,serif" font-size="14.00">buffer:10</text>
</g>
<!-- 70166217016500 -->
<g id="node30" class="node"><title>70166217016500</title>
<polygon fill="none" stroke="black" points="33,-135 33,-156 240,-156 240,-135 33,-135"/>
<text text-anchor="start" x="98.5" y="-142.233" font-family="Arial" font-size="14.00">DebugLED </text>
<polygon fill="none" stroke="black" points="33,-115 33,-135 240,-135 240,-115 33,-115"/>
<text text-anchor="start" x="101.5" y="-121.733" font-family="Arial" font-size="14.00">LightValue </text>
<polygon fill="none" stroke="black" points="33,-95 33,-115 240,-115 240,-95 33,-95"/>
<text text-anchor="start" x="88" y="-101.733" font-family="Arial" font-size="14.00">LongExposure </text>
<polygon fill="none" stroke="black" points="33,-75 33,-95 240,-95 240,-75 33,-75"/>
<text text-anchor="start" x="87" y="-81.7333" font-family="Arial" font-size="14.00">ShortExposure </text>
<polygon fill="none" stroke="black" points="33,-55 33,-75 240,-75 240,-55 33,-55"/>
<text text-anchor="start" x="36" y="-61.7333" font-family="Arial" font-size="14.00">LowLevelDriver::LowLevelTask </text>
<polygon fill="none" stroke="black" points="33,-35 33,-55 240,-55 240,-35 33,-35"/>
<text text-anchor="start" x="85" y="-41.7333" font-family="Arial" font-size="14.00">depth_samples </text>
<polygon fill="none" stroke="black" points="33,-15 33,-35 240,-35 240,-15 33,-15"/>
<text text-anchor="start" x="119" y="-21.7333" font-family="Arial" font-size="14.00">state </text>
</g>
<!-- 70166217016500&#45;&gt;70166216625660 -->
<g id="edge36" class="edge"><title>70166217016500:depth_samples&#45;&gt;70166216625660:depth_samples</title>
<path fill="none" stroke="black" d="M240,-45C315.49,-45 224.619,-325.901 274,-383 304.089,-417.792 328.814,-411.229 371.899,-410.134"/>
<polygon fill="black" stroke="black" points="372.047,-413.633 382,-410 371.954,-406.633 372.047,-413.633"/>
<text text-anchor="middle" x="306" y="-417.4" font-family="Times Roman,serif" font-size="14.00">data</text>
</g>
<!-- 70166215002420 -->
<g id="node33" class="node"><title>70166215002420</title>
<polygon fill="none" stroke="black" points="370,-35 370,-56 542,-56 542,-35 370,-35"/>
<text text-anchor="start" x="373.5" y="-42.2333" font-family="Arial" font-size="14.00">low_level.depth_samples </text>
<polygon fill="none" stroke="black" points="370,-15 370,-35 542,-35 542,-15 370,-15"/>
<text text-anchor="start" x="373" y="-21.7333" font-family="Arial" font-size="14.00">Logger::Logger </text>
</g>
<!-- 70166217016500&#45;&gt;70166215002420 -->
<g id="edge38" class="edge"><title>70166217016500:depth_samples&#45;&gt;70166215002420:low_level_depth_samples</title>
<path fill="none" stroke="black" d="M240,-45C294.281,-45 310.313,-45.8826 359.962,-45.9894"/>
<polygon fill="black" stroke="black" points="359.996,-49.4894 370,-46 360.004,-42.4894 359.996,-49.4894"/>
<text text-anchor="middle" x="306" y="-51.4" font-family="Times Roman,serif" font-size="14.00">buffer:10</text>
</g>
<!-- 70166217096580 -->
<g id="node35" class="node"><title>70166217096580</title>
<polygon fill="none" stroke="black" points="59,-1536 59,-1557 213,-1557 213,-1536 59,-1536"/>
<text text-anchor="start" x="62" y="-1543.23" font-family="Arial" font-size="14.00">Compositions::Minimal </text>
</g>
</g>
</svg>
