<?xml version="1.0" encoding="UTF-8" standalone="no"?>
<!DOCTYPE svg PUBLIC "-//W3C//DTD SVG 1.1//EN"
 "http://www.w3.org/Graphics/SVG/1.1/DTD/svg11.dtd">
<!-- Generated by graphviz version 2.26.3 (20100126.1600)
 -->
<!-- Title: _anonymous_0 Pages: 1 -->
<svg width="2210pt" height="206pt"
 viewBox="0.00 0.00 2210.00 206.00" xmlns="http://www.w3.org/2000/svg" xmlns:xlink="http://www.w3.org/1999/xlink">
<g id="graph1" class="graph" transform="scale(1 1) rotate(0) translate(4 202)">
<title>_anonymous_0</title>
<polygon fill="white" stroke="white" points="-4,5 -4,-202 2207,-202 2207,5 -4,5"/>
<!-- 70166217096580 -->
<g id="node1" class="node"><title>70166217096580</title>
<polygon fill="none" stroke="black" points="818,-174.5 818,-197.5 978,-197.5 978,-174.5 818,-174.5"/>
<text text-anchor="start" x="826.5" y="-183.233" font-family="Arial" font-size="14.00">Compositions::Minimal</text>
</g>
<!-- 70166216909780 -->
<g id="node3" class="node"><title>70166216909780</title>
<polygon fill="none" stroke="black" points="-0.5,-114.5 -0.5,-137.5 118.5,-137.5 118.5,-114.5 -0.5,-114.5"/>
<text text-anchor="start" x="8" y="-123.233" font-family="Arial" font-size="14.00">XsensImu::Task</text>
</g>
<!-- 70166217096580&#45;&gt;70166216909780 -->
<g id="edge2" class="edge"><title>70166217096580&#45;&gt;70166216909780</title>
<path fill="none" stroke="black" d="M817.818,-183.978C679.252,-179.831 385.899,-168.181 128.927,-138.131"/>
<polygon fill="black" stroke="black" points="128.989,-134.615 118.648,-136.917 128.168,-141.566 128.989,-134.615"/>
</g>
<!-- 70166217016500 -->
<g id="node5" class="node"><title>70166217016500</title>
<polygon fill="none" stroke="black" points="269.5,-114.5 269.5,-137.5 482.5,-137.5 482.5,-114.5 269.5,-114.5"/>
<text text-anchor="start" x="278" y="-123.233" font-family="Arial" font-size="14.00">LowLevelDriver::LowLevelTask</text>
</g>
<!-- 70166217096580&#45;&gt;70166217016500 -->
<g id="edge4" class="edge"><title>70166217096580&#45;&gt;70166217016500</title>
<path fill="none" stroke="black" d="M817.867,-176.789C729.173,-166.595 585.658,-150.099 486.366,-138.686"/>
<polygon fill="black" stroke="black" points="486.631,-135.193 476.296,-137.528 485.831,-142.147 486.631,-135.193"/>
</g>
<!-- 70166216972440 -->
<g id="node7" class="node"><title>70166216972440</title>
<polygon fill="none" stroke="black" points="633.5,-114.5 633.5,-137.5 736.5,-137.5 736.5,-114.5 633.5,-114.5"/>
<text text-anchor="start" x="642" y="-123.233" font-family="Arial" font-size="14.00">Canbus::Task</text>
</g>
<!-- 70166217096580&#45;&gt;70166216972440 -->
<g id="edge6" class="edge"><title>70166217096580&#45;&gt;70166216972440</title>
<path fill="none" stroke="black" d="M856.931,-174.431C822.455,-164.72 773.043,-150.801 736.03,-140.375"/>
<polygon fill="black" stroke="black" points="736.517,-136.876 725.942,-137.533 734.619,-143.613 736.517,-136.876"/>
</g>
<!-- 70166216831120 -->
<g id="node9" class="node"><title>70166216831120</title>
<polygon fill="none" stroke="black" points="753.5,-114.5 753.5,-137.5 858.5,-137.5 858.5,-114.5 753.5,-114.5"/>
<text text-anchor="start" x="762" y="-123.233" font-family="Arial" font-size="14.00">Hbridge::Task</text>
</g>
<!-- 70166217096580&#45;&gt;70166216831120 -->
<g id="edge8" class="edge"><title>70166217096580&#45;&gt;70166216831120</title>
<path fill="none" stroke="black" d="M880.261,-174.431C866.643,-165.55 847.629,-153.149 832.25,-143.12"/>
<polygon fill="black" stroke="black" points="833.972,-140.064 823.684,-137.533 830.148,-145.927 833.972,-140.064"/>
</g>
<!-- 70166216725640 -->
<g id="node11" class="node"><title>70166216725640</title>
<polygon fill="none" stroke="black" points="1258,-114.5 1258,-137.5 1504,-137.5 1504,-114.5 1258,-114.5"/>
<text text-anchor="start" x="1266.5" y="-123.233" font-family="Arial" font-size="14.00">SonarDriver::SonarDriverMicronTask</text>
</g>
<!-- 70166217096580&#45;&gt;70166216725640 -->
<g id="edge10" class="edge"><title>70166217096580&#45;&gt;70166216725640</title>
<path fill="none" stroke="black" d="M978.029,-176.059C1060.25,-165.845 1188.55,-149.907 1278.23,-138.766"/>
<polygon fill="black" stroke="black" points="1278.93,-142.206 1288.42,-137.5 1278.07,-135.26 1278.93,-142.206"/>
</g>
<!-- 70166216677180 -->
<g id="node13" class="node"><title>70166216677180</title>
<polygon fill="none" stroke="black" points="1656,-114.5 1656,-137.5 1770,-137.5 1770,-114.5 1656,-114.5"/>
<text text-anchor="start" x="1664.5" y="-123.233" font-family="Arial" font-size="14.00">Dsp3000::Task</text>
</g>
<!-- 70166217096580&#45;&gt;70166216677180 -->
<g id="edge12" class="edge"><title>70166217096580&#45;&gt;70166216677180</title>
<path fill="none" stroke="black" d="M978.094,-183.912C1113.62,-179.707 1396.9,-168.028 1645.87,-138.026"/>
<polygon fill="black" stroke="black" points="1646.32,-141.497 1655.82,-136.814 1645.47,-134.548 1646.32,-141.497"/>
</g>
<!-- 70166216625660 -->
<g id="node15" class="node"><title>70166216625660</title>
<polygon fill="none" stroke="black" points="1921.5,-114.5 1921.5,-137.5 2068.5,-137.5 2068.5,-114.5 1921.5,-114.5"/>
<text text-anchor="start" x="1930" y="-123.233" font-family="Arial" font-size="14.00">StateEstimator::Task</text>
</g>
<!-- 70166217096580&#45;&gt;70166216625660 -->
<g id="edge14" class="edge"><title>70166217096580&#45;&gt;70166216625660</title>
<path fill="none" stroke="black" d="M978.129,-184.879C1148.22,-181.919 1558.08,-171.713 1911.12,-138.111"/>
<polygon fill="black" stroke="black" points="1911.66,-141.575 1921.28,-137.136 1911,-134.607 1911.66,-141.575"/>
</g>
<!-- 70166216554940 -->
<g id="node17" class="node"><title>70166216554940</title>
<polygon fill="none" stroke="black" points="875.5,-114.5 875.5,-137.5 1106.5,-137.5 1106.5,-114.5 875.5,-114.5"/>
<text text-anchor="start" x="884" y="-123.233" font-family="Arial" font-size="14.00">AvalonControl::MotionControlTask</text>
</g>
<!-- 70166217096580&#45;&gt;70166216554940 -->
<g id="edge16" class="edge"><title>70166217096580&#45;&gt;70166216554940</title>
<path fill="none" stroke="black" d="M915.931,-174.431C929.698,-165.55 948.918,-153.149 964.464,-143.12"/>
<polygon fill="black" stroke="black" points="966.618,-145.895 973.124,-137.533 962.823,-140.013 966.618,-145.895"/>
</g>
<!-- 70166216073820 -->
<g id="node27" class="node"><title>70166216073820</title>
<polygon fill="none" stroke="black" points="37,-1 37,-77 203,-77 203,-1 37,-1"/>
<text text-anchor="start" x="53.5" y="-62.7333" font-family="Arial" font-size="14.00">Deployments::Xsens</text>
<text text-anchor="start" x="56.5" y="-45.9333" font-family="Arial" font-size="14.00">log:true,on:localhost</text>
<text text-anchor="start" x="118" y="-29.1333" font-family="Arial" font-size="14.00"> </text>
<text text-anchor="start" x="45.5" y="-12.3333" font-family="Arial" font-size="14.00"> [Process name: xsens]</text>
</g>
<!-- 70166216909780&#45;&gt;70166216073820 -->
<g id="edge26" class="edge"><title>70166216909780&#45;&gt;70166216073820</title>
<path fill="none" stroke="blue" d="M67.2267,-114.267C72.5651,-106.653 79.9052,-96.1843 87.4147,-85.4741"/>
<polygon fill="blue" stroke="blue" points="90.2847,-87.4774 93.1599,-77.2801 84.5532,-83.4587 90.2847,-87.4774"/>
</g>
<!-- 70166216153500 -->
<g id="node31" class="node"><title>70166216153500</title>
<polygon fill="none" stroke="black" points="373.5,-1 373.5,-77 560.5,-77 560.5,-1 373.5,-1"/>
<text text-anchor="start" x="390.5" y="-62.7333" font-family="Arial" font-size="14.00">Deployments::LowLevel</text>
<text text-anchor="start" x="403.5" y="-45.9333" font-family="Arial" font-size="14.00">log:true,on:localhost</text>
<text text-anchor="start" x="465" y="-29.1333" font-family="Arial" font-size="14.00"> </text>
<text text-anchor="start" x="382" y="-12.3333" font-family="Arial" font-size="14.00"> [Process name: low_level]</text>
</g>
<!-- 70166217016500&#45;&gt;70166216153500 -->
<g id="edge30" class="edge"><title>70166217016500&#45;&gt;70166216153500</title>
<path fill="none" stroke="blue" d="M388.273,-114.267C396.549,-106.354 408.05,-95.3589 419.708,-84.2131"/>
<polygon fill="blue" stroke="blue" points="422.15,-86.7204 426.96,-77.2801 417.313,-81.6607 422.15,-86.7204"/>
</g>
<!-- 70166216433940 -->
<g id="node39" class="node"><title>70166216433940</title>
<polygon fill="none" stroke="black" points="788,-1 788,-77 1008,-77 1008,-1 788,-1"/>
<text text-anchor="start" x="807.5" y="-62.7333" font-family="Arial" font-size="14.00">Deployments::AvalonControl</text>
<text text-anchor="start" x="834.5" y="-45.9333" font-family="Arial" font-size="14.00">log:true,on:localhost</text>
<text text-anchor="start" x="896" y="-29.1333" font-family="Arial" font-size="14.00"> </text>
<text text-anchor="start" x="796.5" y="-12.3333" font-family="Arial" font-size="14.00"> [Process name: avalon_control]</text>
</g>
<!-- 70166216972440&#45;&gt;70166216433940 -->
<g id="edge38" class="edge"><title>70166216972440&#45;&gt;70166216433940</title>
<path fill="none" stroke="blue" d="M713.285,-114.447C734.616,-105.734 765.278,-93.2104 795.508,-80.8628"/>
<polygon fill="blue" stroke="blue" points="796.932,-84.0623 804.866,-77.0408 794.285,-77.582 796.932,-84.0623"/>
</g>
<!-- 70166216831120&#45;&gt;70166216433940 -->
<g id="edge40" class="edge"><title>70166216831120&#45;&gt;70166216433940</title>
<path fill="none" stroke="blue" d="M818.408,-114.267C826.775,-106.354 838.402,-95.3589 850.188,-84.2131"/>
<polygon fill="blue" stroke="blue" points="852.659,-86.6941 857.52,-77.2801 847.849,-81.608 852.659,-86.6941"/>
</g>
<!-- 70166216226620 -->
<g id="node35" class="node"><title>70166216226620</title>
<polygon fill="none" stroke="black" points="1377,-1 1377,-77 1541,-77 1541,-1 1377,-1"/>
<text text-anchor="start" x="1394" y="-62.7333" font-family="Arial" font-size="14.00">Deployments::Sonar</text>
<text text-anchor="start" x="1395.5" y="-45.9333" font-family="Arial" font-size="14.00">log:true,on:localhost</text>
<text text-anchor="start" x="1457" y="-29.1333" font-family="Arial" font-size="14.00"> </text>
<text text-anchor="start" x="1385.5" y="-12.3333" font-family="Arial" font-size="14.00"> [Process name: sonar]</text>
</g>
<!-- 70166216725640&#45;&gt;70166216226620 -->
<g id="edge34" class="edge"><title>70166216725640&#45;&gt;70166216226620</title>
<path fill="none" stroke="blue" d="M1391.52,-114.267C1398.48,-106.504 1408.1,-95.7727 1417.9,-84.8438"/>
<polygon fill="blue" stroke="blue" points="1420.61,-87.0623 1424.68,-77.2801 1415.4,-82.3894 1420.61,-87.0623"/>
</g>
<!-- 70166215998700 -->
<g id="node23" class="node"><title>70166215998700</title>
<polygon fill="none" stroke="black" points="1675,-1 1675,-77 1825,-77 1825,-1 1675,-1"/>
<text text-anchor="start" x="1691" y="-62.7333" font-family="Arial" font-size="14.00">Deployments::Fog</text>
<text text-anchor="start" x="1686.5" y="-45.9333" font-family="Arial" font-size="14.00">log:true,on:localhost</text>
<text text-anchor="start" x="1748" y="-29.1333" font-family="Arial" font-size="14.00"> </text>
<text text-anchor="start" x="1683.5" y="-12.3333" font-family="Arial" font-size="14.00"> [Process name: fog]</text>
</g>
<!-- 70166216677180&#45;&gt;70166215998700 -->
<g id="edge22" class="edge"><title>70166216677180&#45;&gt;70166215998700</title>
<path fill="none" stroke="blue" d="M1717.99,-114.267C1721.1,-106.952 1725.33,-97.001 1729.7,-86.7329"/>
<polygon fill="blue" stroke="blue" points="1733.03,-87.8523 1733.72,-77.2801 1726.59,-85.1127 1733.03,-87.8523"/>
</g>
<!-- 70166215947080 -->
<g id="node19" class="node"><title>70166215947080</title>
<polygon fill="none" stroke="black" points="1955,-1 1955,-77 2183,-77 2183,-1 1955,-1"/>
<text text-anchor="start" x="1976" y="-62.7333" font-family="Arial" font-size="14.00">Deployments::PoseEstimator</text>
<text text-anchor="start" x="2005.5" y="-45.9333" font-family="Arial" font-size="14.00">log:true,on:localhost</text>
<text text-anchor="start" x="2067" y="-29.1333" font-family="Arial" font-size="14.00"> </text>
<text text-anchor="start" x="1963.5" y="-12.3333" font-family="Arial" font-size="14.00"> [Process name: pose_estimator]</text>
</g>
<!-- 70166216625660&#45;&gt;70166215947080 -->
<g id="edge18" class="edge"><title>70166216625660&#45;&gt;70166215947080</title>
<path fill="none" stroke="blue" d="M2004.98,-114.267C2011.52,-106.578 2020.54,-95.9788 2029.74,-85.159"/>
<polygon fill="blue" stroke="blue" points="2032.63,-87.1651 2036.44,-77.2801 2027.29,-82.6297 2032.63,-87.1651"/>
</g>
<!-- 70166216554940&#45;&gt;70166216433940 -->
<g id="edge42" class="edge"><title>70166216554940&#45;&gt;70166216433940</title>
<path fill="none" stroke="blue" d="M978.458,-114.267C970,-106.354 958.246,-95.3589 946.331,-84.2131"/>
<polygon fill="blue" stroke="blue" points="948.614,-81.5558 938.92,-77.2801 943.832,-86.6677 948.614,-81.5558"/>
</g>
<!-- 70166214958340 -->
<g id="node20" class="node"><title>70166214958340</title>
<polygon fill="none" stroke="black" points="2085.5,-114.5 2085.5,-137.5 2202.5,-137.5 2202.5,-114.5 2085.5,-114.5"/>
<text text-anchor="start" x="2094" y="-123.233" font-family="Arial" font-size="14.00">Logger::Logger</text>
</g>
<!-- 70166214958340&#45;&gt;70166215947080 -->
<g id="edge20" class="edge"><title>70166214958340&#45;&gt;70166215947080</title>
<path fill="none" stroke="blue" d="M2133.89,-114.267C2127.26,-106.578 2118.12,-95.9788 2108.79,-85.159"/>
<polygon fill="blue" stroke="blue" points="2111.18,-82.569 2102,-77.2801 2105.88,-87.1396 2111.18,-82.569"/>
</g>
<!-- 70166214972780 -->
<g id="node24" class="node"><title>70166214972780</title>
<polygon fill="none" stroke="black" points="1787.5,-114.5 1787.5,-137.5 1904.5,-137.5 1904.5,-114.5 1787.5,-114.5"/>
<text text-anchor="start" x="1796" y="-123.233" font-family="Arial" font-size="14.00">Logger::Logger</text>
</g>
<!-- 70166214972780&#45;&gt;70166215998700 -->
<g id="edge24" class="edge"><title>70166214972780&#45;&gt;70166215998700</title>
<path fill="none" stroke="blue" d="M1833.05,-114.267C1824.32,-106.354 1812.19,-95.3589 1799.89,-84.2131"/>
<polygon fill="blue" stroke="blue" points="1802,-81.4019 1792.24,-77.2801 1797.3,-86.5888 1802,-81.4019"/>
</g>
<!-- 70166214987660 -->
<g id="node28" class="node"><title>70166214987660</title>
<polygon fill="none" stroke="black" points="135.5,-114.5 135.5,-137.5 252.5,-137.5 252.5,-114.5 135.5,-114.5"/>
<text text-anchor="start" x="144" y="-123.233" font-family="Arial" font-size="14.00">Logger::Logger</text>
</g>
<!-- 70166214987660&#45;&gt;70166216073820 -->
<g id="edge28" class="edge"><title>70166214987660&#45;&gt;70166216073820</title>
<path fill="none" stroke="blue" d="M184.02,-114.267C177.48,-106.578 168.465,-95.9788 159.262,-85.159"/>
<polygon fill="blue" stroke="blue" points="161.705,-82.6297 152.56,-77.2801 156.373,-87.1651 161.705,-82.6297"/>
</g>
<!-- 70166215002420 -->
<g id="node32" class="node"><title>70166215002420</title>
<polygon fill="none" stroke="black" points="499.5,-114.5 499.5,-137.5 616.5,-137.5 616.5,-114.5 499.5,-114.5"/>
<text text-anchor="start" x="508" y="-123.233" font-family="Arial" font-size="14.00">Logger::Logger</text>
</g>
<!-- 70166215002420&#45;&gt;70166216153500 -->
<g id="edge32" class="edge"><title>70166215002420&#45;&gt;70166216153500</title>
<path fill="none" stroke="blue" d="M545.727,-114.267C537.451,-106.354 525.95,-95.3589 514.292,-84.2131"/>
<polygon fill="blue" stroke="blue" points="516.687,-81.6607 507.04,-77.2801 511.85,-86.7204 516.687,-81.6607"/>
</g>
<!-- 70166215017480 -->
<g id="node36" class="node"><title>70166215017480</title>
<polygon fill="none" stroke="black" points="1521.5,-114.5 1521.5,-137.5 1638.5,-137.5 1638.5,-114.5 1521.5,-114.5"/>
<text text-anchor="start" x="1530" y="-123.233" font-family="Arial" font-size="14.00">Logger::Logger</text>
</g>
<!-- 70166215017480&#45;&gt;70166216226620 -->
<g id="edge36" class="edge"><title>70166215017480&#45;&gt;70166216226620</title>
<path fill="none" stroke="blue" d="M1563.68,-114.267C1552.31,-106.091 1536.36,-94.6233 1520.33,-83.0995"/>
<polygon fill="blue" stroke="blue" points="1522.13,-80.0814 1511.97,-77.0853 1518.05,-85.7648 1522.13,-80.0814"/>
</g>
<!-- 70166215034420 -->
<g id="node42" class="node"><title>70166215034420</title>
<polygon fill="none" stroke="black" points="1123.5,-114.5 1123.5,-137.5 1240.5,-137.5 1240.5,-114.5 1123.5,-114.5"/>
<text text-anchor="start" x="1132" y="-123.233" font-family="Arial" font-size="14.00">Logger::Logger</text>
</g>
<!-- 70166215034420&#45;&gt;70166216433940 -->
<g id="edge44" class="edge"><title>70166215034420&#45;&gt;70166216433940</title>
<path fill="none" stroke="blue" d="M1144.29,-114.447C1111.89,-104.522 1063.35,-89.6517 1017.9,-75.7298"/>
<polygon fill="blue" stroke="blue" points="1018.84,-72.3582 1008.26,-72.7756 1016.79,-79.0512 1018.84,-72.3582"/>
</g>
</g>
</svg>
